<?xml version="1.0" standalone="no"?>
<!DOCTYPE svg PUBLIC "-//W3C//DTD SVG 20010904//EN"
 "http://www.w3.org/TR/2001/REC-SVG-20010904/DTD/svg10.dtd">
<svg version="1.0" xmlns="http://www.w3.org/2000/svg"
 width="14865.000000pt" height="2188.000000pt" viewBox="0 0 14865.000000 2188.000000"
 preserveAspectRatio="xMidYMid meet">

<g transform="translate(0.000000,2188.000000) scale(0.100000,-0.100000)"
fill="#000000" stroke="none">
<path d="M18030 19002 c0 -7 -3207 -16139 -3226 -16225 l-6 -27 5314 0 5313 0
401 1993 401 1992 -3496 3 -3496 2 -56 167 -55 167 137 688 138 687 113 155
113 155 2255 1 2255 0 972 2118 972 2117 -2801 5 -2801 5 -53 144 c-30 80 -54
154 -54 165 0 12 61 325 135 696 114 571 139 679 160 709 13 20 69 97 123 171
l98 135 3495 3 3495 2 388 1973 c213 1084 390 1980 393 1990 4 16 -254 17
-5311 17 -2924 0 -5316 -4 -5316 -8z m9475 -964 c-2 -7 -92 -463 -200 -1013
-108 -550 -198 -1008 -201 -1017 -5 -17 -162 -18 -3107 -18 l-3102 0 -216 -52
-217 -51 -133 -97 c-148 -107 -117 -70 -420 -492 l-127 -176 -52 -214 c-62
-255 -320 -1537 -320 -1589 0 -64 98 -448 151 -594 47 -126 61 -153 145 -270
90 -126 97 -133 221 -221 l128 -91 214 -52 213 -51 2049 0 c1127 0 2049 -2
2049 -4 0 -2 -238 -523 -530 -1157 l-529 -1154 -1968 -5 -1968 -5 -195 -49
-195 -48 -125 -90 c-138 -98 -128 -87 -410 -479 l-120 -166 -54 -224 c-30
-123 -115 -530 -190 -905 l-136 -681 50 -209 c28 -115 76 -285 107 -379 54
-166 58 -173 146 -296 86 -122 94 -130 216 -216 l126 -90 214 -52 213 -51
2920 0 c2776 0 2920 -1 2916 -18 -3 -9 -97 -475 -209 -1034 l-204 -1018 -4352
0 c-3478 0 -4351 3 -4348 13 2 6 644 3227 1425 7157 781 3930 1423 7151 1425
7158 3 9 883 12 4354 12 3476 0 4350 -3 4346 -12z"/>
<path d="M29736 18993 c-9 -31 -3226 -16213 -3226 -16228 0 -13 634 -15 5360
-15 l5360 0 123 71 c296 172 433 266 514 352 43 45 74 100 182 318 144 294
257 545 337 752 45 114 63 181 104 385 27 136 593 2981 1257 6322 l1208 6075
-2 430 c-2 237 -7 475 -13 530 -6 55 -17 183 -25 284 l-14 184 -77 131 c-86
147 -161 258 -241 359 l-54 67 -5394 0 c-5128 0 -5394 -1 -5399 -17z m10238
-965 c10 -33 28 -699 24 -853 -4 -125 -47 -344 -1230 -6300 l-1227 -6170 -50
-121 c-71 -173 -161 -371 -266 -589 l-92 -190 -79 -48 -79 -47 -4659 0 -4658
0 6 27 c10 47 2846 14305 2846 14309 0 2 2128 4 4729 4 l4729 0 6 -22z"/>
<path d="M32178 15616 l-207 -51 -124 -89 c-108 -77 -139 -106 -239 -225 -63
-75 -160 -199 -216 -277 l-102 -141 -55 -226 c-30 -124 -372 -1818 -761 -3764
l-706 -3538 52 -220 c48 -201 59 -233 126 -375 51 -107 100 -193 160 -276 83
-116 92 -125 213 -211 l126 -90 214 -52 213 -51 2228 0 2228 0 213 51 214 52
125 89 c138 98 128 86 412 482 l122 168 43 177 c46 190 1473 7311 1473 7354 0
54 -103 448 -152 582 -45 125 -61 154 -142 268 -89 125 -95 131 -221 221
l-130 93 -214 52 -213 51 -2237 -1 -2236 -1 -207 -52z m4739 -1060 l55 -148
-710 -3553 -709 -3552 -114 -156 -114 -156 -2225 0 -2225 0 -72 154 -72 155
705 3532 c387 1943 708 3543 712 3555 4 13 63 90 132 173 l125 150 2229 -3
2228 -2 55 -149z"/>
<path d="M48091 18969 c-300 -163 -587 -435 -810 -769 -226 -338 -330 -590
-416 -1013 -58 -285 -2875 -14427 -2875 -14433 0 -2 836 -4 1859 -4 l1858 0
41 208 c23 114 206 1037 407 2052 201 1015 366 1849 368 1853 1 4 56 77 122
162 l120 154 2039 -2 2038 -2 54 -145 c30 -80 54 -152 54 -161 0 -8 -182 -935
-405 -2060 -223 -1124 -405 -2047 -405 -2051 0 -5 832 -8 1849 -8 l1849 0 5
23 c29 116 2879 14473 2886 14537 54 476 -27 1265 -156 1525 -37 74 -87 130
-136 154 l-43 21 -5115 0 -5114 0 -74 -41z m9685 -1006 c11 -130 8 -525 -5
-628 -7 -49 -595 -3019 -1307 -6600 -712 -3581 -1318 -6626 -1346 -6767 l-51
-258 -889 0 -888 0 5 23 c25 104 615 3108 615 3133 0 59 -100 447 -152 589
-46 126 -61 153 -144 270 -90 126 -96 132 -221 221 l-128 91 -214 52 -213 51
-1501 0 -1502 0 52 37 c66 48 161 179 311 428 280 464 500 753 812 1066 178
178 314 293 428 360 227 135 487 256 699 328 189 64 283 71 959 71 l572 0 213
51 214 52 134 95 c124 89 141 105 239 229 58 73 151 197 207 275 l103 143 61
255 c63 264 591 2882 591 2931 0 55 -102 448 -152 584 -46 125 -61 154 -142
268 -89 125 -95 131 -221 221 l-130 93 -214 52 -213 51 -2038 0 -2038 0 -213
-51 -214 -52 -128 -91 c-121 -86 -133 -99 -245 -241 -65 -82 -158 -206 -207
-274 l-89 -123 -61 -257 c-34 -141 -300 -1447 -591 -2902 l-528 -2647 53 -223
53 -224 90 -125 c96 -135 110 -147 367 -322 l113 -77 -38 -10 c-22 -5 -100
-24 -174 -42 l-135 -31 -125 -90 c-116 -83 -132 -99 -240 -236 -64 -81 -159
-207 -211 -280 l-96 -133 -53 -222 c-29 -122 -193 -928 -364 -1792 l-312
-1570 -896 -3 c-717 -2 -897 0 -893 10 2 7 605 3028 1339 6713 871 4372 1344
6726 1361 6774 59 162 192 417 279 531 22 30 98 112 168 182 l127 128 4674 0
4675 0 8 -87z m-3359 -3348 l55 -149 -276 -1379 c-272 -1358 -277 -1380 -309
-1421 -17 -22 -74 -94 -125 -158 l-93 -118 -582 0 c-613 0 -706 -5 -938 -50
-506 -97 -1095 -371 -1498 -696 -449 -362 -912 -931 -1321 -1624 -41 -69 -75
-126 -76 -128 -4 -7 -283 183 -284 193 0 6 242 1218 537 2694 l536 2683 121
154 121 154 2039 -3 2038 -2 55 -150z"/>
<path d="M83306 11743 c-797 -3998 -1455 -7308 -1462 -7358 -17 -108 -18 -319
-3 -418 26 -173 93 -385 172 -542 142 -284 398 -616 530 -686 27 -15 33 -3 11
23 l-19 22 27 -17 c26 -16 325 -17 4999 -17 5478 0 5020 -5 5149 60 224 113
513 479 720 912 104 218 213 517 279 768 27 101 2891 14473 2891 14507 0 11
-324 13 -1849 13 l-1848 0 -542 -2717 c-298 -1495 -823 -4130 -1168 -5855
l-625 -3136 -115 -156 -115 -156 -2036 2 -2035 3 -65 152 -64 152 1166 5848
c641 3217 1166 5852 1166 5856 0 4 -836 7 -1858 7 l-1858 0 -1448 -7267z
m4008 6290 c-22 -93 -2134 -10709 -2134 -10727 0 -13 23 -118 50 -233 70 -291
137 -450 266 -628 90 -126 97 -133 221 -221 l128 -91 214 -52 213 -51 2033 0
2033 0 213 51 214 52 132 94 132 95 134 181 c73 100 162 222 197 271 l64 88
62 257 c33 141 540 2658 1125 5593 l1064 5338 889 0 888 0 -5 -22 c-3 -13
-598 -3000 -1322 -6638 -1226 -6163 -1319 -6625 -1365 -6762 -121 -358 -292
-716 -412 -860 l-49 -58 -4676 2 -4675 3 -44 80 c-24 44 -60 118 -79 163 -33
80 -35 90 -35 200 0 65 5 149 10 187 10 66 2716 13666 2725 13693 3 9 192 12
899 12 846 0 894 -1 890 -17z"/>
<path d="M122805 18998 c-8 -27 -3225 -16216 -3225 -16232 0 -15 405 -16 5309
-16 l5309 0 6 25 c7 29 796 3953 796 3960 0 3 -1572 5 -3494 5 l-3494 0 -30
83 c-16 45 -42 120 -57 167 l-27 85 137 686 137 686 113 154 113 154 2257 5
2257 5 964 2100 c530 1155 967 2108 970 2118 5 16 -132 17 -2794 17 l-2799 0
-57 155 -57 155 137 687 138 688 125 173 125 172 3493 0 3493 0 5 23 c13 58
775 3936 775 3946 0 17 -10619 16 -10625 -1z m9472 -970 c-3 -13 -94 -476
-203 -1030 l-198 -1008 -3107 0 -3107 0 -213 -51 -214 -52 -131 -93 -131 -94
-209 -290 -209 -289 -51 -211 c-28 -116 -114 -522 -190 -904 l-138 -694 52
-219 c31 -129 75 -280 108 -368 49 -134 64 -161 146 -275 87 -123 95 -131 217
-217 l126 -90 195 -49 195 -49 2070 -5 2071 -5 -531 -1157 -530 -1157 -1945
-1 -1945 0 -216 -52 -217 -51 -132 -96 -133 -96 -149 -205 c-260 -355 -237
-313 -297 -560 -56 -229 -321 -1536 -321 -1581 0 -50 100 -443 152 -598 50
-149 55 -159 147 -287 93 -129 100 -136 221 -222 l125 -89 214 -52 213 -51
2914 0 c2495 0 2914 -2 2914 -14 0 -8 -92 -472 -205 -1031 -113 -560 -205
-1019 -205 -1021 0 -2 -1957 -4 -4350 -4 -2392 0 -4350 2 -4350 4 0 4 2819
14179 2841 14284 l10 52 4351 0 4350 0 -5 -22z"/>
<path d="M2022 10872 c-888 -4448 -1616 -8095 -1619 -8105 -4 -16 78 -17 1669
-15 l1672 3 533 2675 c292 1471 534 2689 538 2706 5 31 13 35 193 112 103 45
190 78 193 74 3 -4 133 -1259 289 -2790 l284 -2782 1411 0 1410 0 1414 2783
c777 1530 1417 2786 1421 2790 4 5 78 -28 164 -73 138 -72 155 -84 151 -103
-3 -12 -244 -1223 -535 -2692 -292 -1468 -533 -2678 -536 -2687 -5 -17 72 -18
1530 -18 845 0 1536 3 1536 6 0 4 727 3648 1615 8098 888 4451 1615 8095 1615
8099 0 4 -814 7 -1809 7 l-1808 0 -2261 -4302 -2261 -4303 -160 -3 -159 -2 -6
42 c-3 24 -251 1947 -551 4273 -299 2327 -547 4245 -550 4263 l-6 32 -1882 0
-1882 0 -1613 -8088z m4543 7106 c2 -13 223 -1722 490 -3798 l485 -3775 56
-240 56 -240 91 -126 c86 -122 94 -130 216 -216 l126 -90 214 -52 c210 -50
215 -51 371 -51 156 0 161 1 371 51 l214 52 130 93 c224 160 9 -227 2431 4382
l2118 4032 941 0 942 0 -332 -1662 c-182 -915 -823 -4130 -1425 -7145 l-1095
-5483 -567 0 c-313 0 -568 4 -568 9 0 4 198 1004 441 2222 l441 2214 -52 220
-52 220 -92 128 c-89 125 -95 131 -221 221 -71 51 -195 127 -275 168 -139 72
-153 77 -362 127 l-218 53 -217 -52 -218 -53 -130 -93 c-228 -163 -109 50
-1591 -2866 l-1279 -2517 -682 -1 -682 0 -5 32 c-3 18 -109 1052 -236 2298
l-230 2265 -51 220 -51 220 -92 128 c-88 124 -95 131 -221 221 l-130 93 -215
52 -216 52 -224 -55 c-193 -47 -250 -66 -398 -130 -144 -62 -193 -89 -301
-167 -124 -89 -131 -96 -220 -219 l-91 -128 -51 -208 c-27 -115 -248 -1203
-490 -2419 -241 -1215 -441 -2220 -444 -2232 l-5 -23 -705 0 c-513 0 -705 3
-705 11 0 13 2838 14236 2846 14262 5 16 65 17 1079 17 l1075 0 5 -22z"/>
<path d="M42455 18948 c-2 -7 -729 -3647 -1615 -8088 -886 -4441 -1613 -8083
-1616 -8092 -5 -17 85 -18 1800 -18 1230 0 1806 3 1806 10 0 8 3192 16008
3226 16173 l6 27 -1802 0 c-1431 0 -1801 -3 -1805 -12z m2444 -970 c0 -13
-640 -3227 -1422 -7143 l-1422 -7120 -838 -3 c-460 -1 -837 1 -837 5 0 8 2835
14220 2845 14261 l5 22 835 0 835 0 -1 -22z"/>
<path d="M60135 18948 c-7 -22 -795 -3952 -795 -3965 0 -10 310 -13 1501 -15
l1502 -3 63 -165 64 -165 -1071 -5355 -1071 -5355 5 -285 c4 -175 12 -329 22
-400 36 -258 99 -416 189 -471 30 -18 84 -19 2334 -19 1380 0 2302 4 2302 9 0
12 789 3940 796 3963 5 17 -34 18 -692 20 l-696 3 -54 155 c-29 85 -54 165
-54 176 0 29 1488 7524 1500 7551 5 12 61 94 126 182 l116 161 1869 0 1869 0
5 23 c11 44 795 3949 795 3958 0 5 -2115 9 -5310 9 -4240 0 -5311 -3 -5315
-12z m9264 -1980 c-115 -568 -208 -1034 -209 -1035 0 -2 -668 -3 -1484 -3
l-1484 0 -213 -51 -214 -52 -132 -94 -132 -94 -189 -262 c-104 -144 -199 -278
-210 -297 -11 -19 -45 -141 -76 -270 -67 -283 -1536 -7677 -1536 -7731 0 -59
95 -435 152 -603 49 -143 56 -158 144 -281 90 -127 96 -132 221 -221 l128 -91
214 -52 c193 -46 224 -51 328 -51 114 0 115 0 110 -22 -3 -13 -97 -479 -209
-1036 l-203 -1012 -1557 0 -1558 0 0 103 c0 96 68 440 1072 5461 l1071 5358
-52 219 c-36 149 -72 269 -113 376 -54 141 -71 172 -152 286 -88 124 -95 131
-221 221 l-130 93 -214 52 -213 51 -925 0 c-876 0 -924 1 -919 18 3 9 96 467
206 1017 110 550 203 1008 206 1018 5 16 221 17 4353 17 l4347 0 -207 -1032z"/>
<path d="M72880 18953 c-43 -8 -182 -80 -245 -128 -319 -241 -630 -616 -883
-1061 -88 -156 -189 -374 -231 -499 -32 -98 -276 -1299 -1310 -6465 -698
-3490 -1275 -6385 -1282 -6435 -17 -130 -6 -405 20 -520 85 -367 236 -643 546
-993 l90 -102 4961 0 c5386 0 5032 -4 5172 54 93 37 194 109 291 205 328 326
596 823 776 1443 28 97 2421 12098 2469 12383 39 233 48 562 21 772 -60 454
-200 778 -445 1024 -145 148 -311 246 -507 302 l-78 22 -4670 1 c-2568 1
-4681 -1 -4695 -3z m9266 -995 c79 -73 155 -250 173 -400 22 -192 12 -484 -25
-703 -8 -49 -550 -2784 -1205 -6078 -1055 -5310 -1195 -6002 -1234 -6115 -128
-375 -299 -718 -435 -876 l-65 -75 -4662 -1 -4661 0 -40 73 c-23 41 -57 113
-76 160 -35 83 -36 90 -36 211 0 68 5 160 11 203 5 43 570 2877 1255 6298
1086 5424 1250 6231 1280 6303 70 169 213 437 316 589 65 97 176 229 295 352
l98 101 4483 0 4482 0 46 -42z"/>
<path d="M74578 15226 l-208 -51 -120 -85 -120 -85 -188 -260 c-104 -143 -201
-278 -215 -300 -18 -29 -43 -113 -86 -295 -68 -287 -1371 -6783 -1371 -6835 0
-19 24 -134 54 -257 73 -300 133 -444 259 -619 86 -122 94 -130 216 -216 l126
-90 214 -52 213 -51 2038 0 2038 0 213 51 214 52 128 91 c127 90 129 92 246
251 64 88 156 214 203 280 l86 120 51 215 c57 238 1381 6846 1381 6890 0 50
-99 440 -151 598 -49 147 -54 156 -147 287 -94 130 -101 137 -222 223 l-125
89 -214 52 -213 51 -2047 -1 -2046 -1 -207 -52z m4320 -958 c11 -29 36 -105
57 -168 l38 -115 -669 -3340 -668 -3340 -115 -157 -116 -158 -2035 0 -2036 0
-62 149 c-34 83 -62 159 -62 170 0 26 1330 6663 1338 6678 4 6 59 84 122 172
l115 160 2037 1 2037 0 19 -52z"/>
<path d="M97665 18938 c-3 -13 -731 -3659 -1618 -8103 l-1613 -8080 1670 -3
c918 -1 1670 -1 1671 0 2 2 226 1132 500 2513 l498 2509 129 153 129 153 182
0 182 -1 60 -42 60 -43 935 -2294 c515 -1262 996 -2442 1069 -2622 l134 -328
2079 0 c1976 0 2080 1 2076 17 -3 10 -279 887 -613 1950 l-608 1931 113 264
113 264 82 12 c108 16 329 81 469 138 350 143 730 404 1016 700 157 162 246
301 306 477 19 56 1942 9674 1947 9737 0 9 -61 175 -138 368 l-138 352 -5343
0 -5344 0 -5 -22z m9955 -945 c0 -5 -407 -2055 -905 -4558 -557 -2799 -914
-4571 -928 -4604 -37 -91 -281 -329 -448 -438 -220 -142 -442 -234 -734 -303
l-220 -53 -126 -90 c-121 -86 -130 -95 -217 -216 -83 -116 -99 -146 -201 -386
-101 -238 -115 -278 -161 -468 -27 -115 -50 -219 -50 -232 0 -86 130 -532 489
-1674 215 -682 391 -1245 391 -1251 0 -7 -368 -10 -1107 -10 l-1108 0 -958
2353 c-672 1648 -969 2366 -993 2400 -34 47 -34 48 -18 80 34 65 210 356 289
477 273 417 699 865 984 1034 220 130 504 262 721 334 173 58 251 64 795 69
l490 4 215 51 215 51 133 95 c119 85 141 105 205 191 195 263 327 455 336 489
50 186 130 565 363 1722 l270 1345 -51 216 c-31 127 -74 276 -107 364 -49 134
-64 161 -146 275 -87 123 -95 131 -217 217 l-126 90 -214 52 -213 51 -1908 0
-1908 0 -213 -51 -214 -52 -134 -96 c-121 -86 -146 -109 -257 -241 -68 -81
-163 -202 -213 -271 l-89 -124 -60 -255 c-34 -140 -295 -1428 -582 -2861
l-520 -2606 53 -220 53 -220 -88 -104 c-49 -57 -131 -162 -182 -234 l-94 -130
-52 -220 c-30 -121 -234 -1131 -455 -2245 l-401 -2025 -708 -3 -708 -2 6 27
c3 16 643 3221 1422 7123 778 3902 1418 7105 1421 7118 l5 22 4589 0 c2524 0
4589 -3 4589 -7z m-3297 -3434 l55 -151 -268 -1335 c-263 -1309 -269 -1336
-301 -1382 -18 -25 -71 -96 -116 -158 l-83 -111 -502 -5 c-448 -3 -517 -6
-633 -25 -464 -74 -895 -233 -1330 -492 -393 -234 -744 -567 -1111 -1053 -188
-249 -419 -604 -574 -884 -13 -24 -26 -43 -29 -43 -20 1 -296 190 -294 201 1
8 239 1200 529 2649 l526 2635 130 153 129 152 1908 0 1908 0 56 -151z"/>
<path d="M108511 10878 c-887 -4446 -1615 -8093 -1618 -8106 l-5 -22 1673 2
1674 3 765 3835 766 3834 183 124 c100 68 184 123 186 121 3 -3 2983 -7699
3047 -7866 l19 -53 1647 0 1647 0 1614 8088 c888 4448 1616 8095 1619 8105 4
16 -80 17 -1660 17 l-1665 0 -678 -3388 -677 -3387 -170 -120 c-94 -66 -173
-121 -177 -123 -3 -1 -744 1577 -1646 3508 l-1640 3510 -1645 0 -1646 0 -1613
-8082z m5808 3878 l1514 -3244 91 -125 c87 -120 97 -130 216 -215 l125 -90
218 -52 217 -52 218 52 c248 60 184 26 592 317 l215 153 91 128 92 127 59 250
c33 138 318 1543 634 3123 l574 2872 697 0 c658 0 698 -1 697 -17 0 -10 -640
-3224 -1423 -7143 l-1422 -7125 -934 0 -935 0 -1426 3685 -1426 3685 -89 127
c-87 125 -92 130 -219 222 l-130 93 -217 53 -218 52 -217 -53 -218 -52 -135
-90 c-74 -50 -210 -143 -302 -209 l-166 -119 -95 -132 -95 -132 -55 -235 c-31
-129 -353 -1727 -717 -3550 -363 -1823 -663 -3323 -666 -3332 -5 -17 -48 -18
-710 -18 -602 0 -704 2 -704 14 0 15 2838 14242 2845 14264 3 9 204 12 957 12
l953 -1 1514 -3243z"/>
<path d="M133616 14415 l-898 -4515 5 -197 c5 -223 21 -326 72 -480 57 -169
152 -338 242 -425 l39 -38 3684 -2 3684 -3 64 -150 63 -150 -121 -575 -122
-575 -81 -110 c-44 -60 -96 -131 -115 -157 l-34 -48 -3984 0 -3984 0 -5 -22
c-7 -30 -845 -4209 -845 -4214 0 -2 2494 -3 5543 -2 l5542 3 68 33 c200 99
495 490 606 805 22 64 433 2110 1546 7702 833 4188 1515 7619 1515 7625 0 7
-563 9 -1727 8 l-1728 -3 -767 -3864 c-422 -2124 -768 -3864 -770 -3865 -13
-10 -307 -176 -320 -182 -13 -4 -18 -1 -18 11 0 33 -128 401 -185 530 -141
324 -299 559 -516 770 -140 136 -246 222 -409 330 -207 137 -415 244 -618 316
l-84 29 -942 0 -943 0 -57 155 -58 156 552 2792 c303 1536 554 2800 556 2810
5 16 -84 17 -1773 17 l-1779 0 -898 -4515z m3294 3540 c0 -8 -205 -1050 -455
-2315 -250 -1266 -455 -2311 -455 -2324 0 -55 105 -452 156 -590 49 -135 63
-161 146 -276 87 -123 95 -131 217 -217 l126 -90 214 -52 213 -51 862 0 862 0
124 -63 c235 -120 345 -201 526 -388 104 -108 169 -216 272 -448 57 -129 192
-508 192 -542 0 -8 42 -71 93 -141 88 -121 98 -131 217 -216 l125 -90 218 -52
217 -52 218 52 217 52 166 94 c92 52 221 134 287 182 114 82 126 94 211 213
l91 126 55 226 c30 124 354 1735 720 3579 366 1844 667 3363 670 3376 l5 22
766 0 c724 0 765 -1 760 -17 -3 -10 -629 -3157 -1391 -6993 l-1387 -6975 -66
-135 -67 -135 -4797 -3 c-4129 -2 -4798 0 -4798 12 0 8 104 528 230 1157 127
628 230 1144 230 1146 0 1 1620 3 3599 3 l3599 0 213 51 214 52 131 93 c145
104 129 86 410 477 l121 168 61 257 c65 274 282 1288 282 1321 0 10 -23 115
-51 232 -71 291 -135 443 -262 621 -89 125 -96 132 -222 222 l-130 93 -214 52
-213 51 -3379 0 -3379 0 0 86 c0 73 115 663 800 4112 441 2215 803 4033 805
4040 3 9 175 12 815 12 713 0 810 -2 810 -15z"/>
</g>
</svg>
